<svg width="1920" height="4182" viewBox="0 0 1920 4182" fill="none" xmlns="http://www.w3.org/2000/svg">
<rect width="1920" height="4181.58" fill="#D9D9D9"/>
<mask id="mask0_52_2312" style="mask-type:alpha" maskUnits="userSpaceOnUse" x="0" y="0" width="1920" height="4182">
<rect width="1920" height="4181.58" fill="#D9D9D9"/>
</mask>
<g mask="url(#mask0_52_2312)">
<path d="M988.769 -58.2109C1032.02 54.5142 1070.18 234.438 1042.93 410.369C1015.27 588.954 919.3 765.365 694.705 856.941C471.673 947.881 392.172 1168.49 417.557 1395.03C440.019 1595.48 542.878 1782.06 681.172 1868.14C695.921 1769.55 737.937 1702.17 797.774 1664.78C870.19 1619.53 955.892 1626.59 1017.28 1657.12C1062.47 1679.59 1095.9 1721.35 1114.15 1766.12C1132.45 1810.98 1137.99 1865.03 1119.12 1914.4C1099.38 1966.04 1055.5 2005.64 989.43 2022.3C934.212 2036.22 864.319 2034.13 778.382 2013.3C784.306 2077.55 799.333 2155.05 826.774 2247.79C922.829 2572.44 1155.96 2721.04 1372.45 2769.74C1383.35 2633.37 1432.75 2494.9 1552.92 2426.67C1620.92 2388.05 1689.08 2388.3 1746.33 2416.27C1801.43 2443.2 1841.98 2493.45 1864.54 2548.08C1887.12 2602.79 1893.9 2667.25 1874.77 2726C1855 2786.74 1808.64 2837.34 1734.23 2861.35C1663.54 2884.15 1571.58 2894.05 1472.05 2885.9C1479.99 2994.28 1510.48 3095.93 1548.93 3156.27C1568.12 3186.37 1578.83 3226.05 1584.16 3267.54C1589.62 3309.98 1589.97 3358.6 1585.41 3409.74C1576.3 3511.82 1547.21 3628.32 1495.06 3731.51C1443.04 3834.42 1365.84 3928.33 1258.23 3977.66C1148.84 4027.81 1016.04 4028.22 862.08 3958.75C647.132 3861.75 483.69 3891.99 365.379 3963.71C244.056 4037.25 165.309 4157.62 130.822 4245.55L84.2744 4227.29L37.7266 4209.03C78.1509 4105.97 169.135 3965.73 313.541 3878.19C460.96 3788.83 659.25 3757.51 903.212 3867.6C1036.07 3927.55 1138.24 3922.66 1216.56 3886.75C1296.68 3850.03 1359.96 3777.11 1405.81 3686.4C1451.51 3595.97 1477.67 3492.04 1485.8 3400.86C1489.86 3355.37 1489.33 3314.16 1484.98 3280.29C1480.51 3245.48 1472.49 3222.39 1464.6 3210.01C1412.32 3127.97 1377.22 2999.98 1371.02 2871.65C1120.71 2821.39 842.264 2652.61 730.884 2276.17C696.155 2158.79 679.103 2060.6 675.918 1978.98C476.877 1885.75 344.889 1644.53 318.179 1406.17C289.756 1152.52 378.275 877.97 656.949 764.343C842.409 688.723 920.625 546.653 944.105 395.062C967.997 240.818 934.256 78.8679 895.404 -22.3887L942.086 -40.2998L988.769 -58.2109ZM1702.43 2506.12C1675.86 2493.14 1642.59 2490.74 1602.3 2513.62C1522.37 2559.01 1479.76 2661.24 1471.52 2785.48C1563.44 2794.06 1645.35 2784.95 1703.53 2766.18C1747.59 2751.96 1769.89 2725.12 1779.68 2695.04C1790.12 2662.98 1787.38 2623.26 1772.1 2586.24C1756.79 2549.16 1731.14 2520.15 1702.43 2506.12ZM972.746 1746.66C936.006 1728.38 888.053 1726.28 850.768 1749.58C819.158 1769.33 784.732 1814.19 776.975 1909.6C866.638 1934.57 926.856 1934.95 964.984 1925.33C1002.64 1915.84 1018.73 1896.96 1025.71 1878.7C1033.56 1858.16 1032.56 1830.87 1021.56 1803.88C1010.51 1776.8 991.882 1756.17 972.746 1746.66Z" fill="#B2B2B2"/>
<path d="M942.087 -39.8887C1024.19 174.093 1085.88 643.856 675.828 811.053C163.258 1020.05 347.278 1835.67 750.739 1954.51C1154.2 2073.34 1123.66 1766.28 995.013 1702.3C866.362 1638.31 615.573 1710.61 778.83 2262.39C942.087 2814.17 1481.93 2890.62 1718.88 2814.17C1955.83 2737.72 1794.2 2347.57 1577.61 2470.56C1361.02 2593.54 1398.47 3013.61 1506.77 3183.55C1615.06 3353.49 1456.29 4172.44 882.647 3913.58C423.736 3706.5 159.186 4036.71 84.2754 4227.7" stroke="white" stroke-width="10" stroke-dasharray="40 40"/>
</g>
</svg>
