<svg width="1920" height="4205" viewBox="0 0 1920 4205" fill="none" xmlns="http://www.w3.org/2000/svg">
<rect y="50.9902" width="1920" height="4097.3" fill="#D9D9D9"/>
<path d="M942.087 11.5C1024.19 221.169 1085.88 681.464 675.828 845.291C163.258 1050.08 347.278 1849.26 750.739 1965.7C1154.2 2082.14 1123.66 1781.27 995.013 1718.57C866.362 1655.88 615.573 1726.72 778.83 2267.38C942.087 2808.04 1481.93 2882.95 1718.88 2808.04C1955.83 2733.13 1794.2 2350.84 1577.61 2471.35C1361.02 2591.86 1398.47 3003.46 1506.77 3169.97C1615.06 3336.49 1456.29 4138.93 882.647 3885.29C423.736 3682.38 159.186 4005.94 84.2754 4193.08" stroke="black" stroke-width="60"/>
</svg>
